<?xml version="1.0" encoding="UTF-8" standalone="no"?>
<svg
   xmlns:dc="http://purl.org/dc/elements/1.1/"
   xmlns:cc="http://creativecommons.org/ns#"
   xmlns:rdf="http://www.w3.org/1999/02/22-rdf-syntax-ns#"
   xmlns:svg="http://www.w3.org/2000/svg"
   xmlns="http://www.w3.org/2000/svg"
   xmlns:sodipodi="http://sodipodi.sourceforge.net/DTD/sodipodi-0.dtd"
   xmlns:inkscape="http://www.inkscape.org/namespaces/inkscape"
   viewBox="0 0 448 512"
   version="1.1"
   id="svg4"
   sodipodi:docname="user.svg"
   inkscape:version="1.0.2 (e86c870879, 2021-01-15, custom)">
  <metadata
     id="metadata10">
    <rdf:RDF>
      <cc:Work
         rdf:about="">
        <dc:format>image/svg+xml</dc:format>
        <dc:type
           rdf:resource="http://purl.org/dc/dcmitype/StillImage" />
      </cc:Work>
    </rdf:RDF>
  </metadata>
  <defs
     id="defs8" />
  <sodipodi:namedview
     pagecolor="#ffffff"
     bordercolor="#666666"
     borderopacity="1"
     objecttolerance="10"
     gridtolerance="10"
     guidetolerance="10"
     inkscape:pageopacity="0"
     inkscape:pageshadow="2"
     inkscape:window-width="1366"
     inkscape:window-height="745"
     id="namedview6"
     showgrid="false"
     inkscape:zoom="1.1289062"
     inkscape:cx="178.3867"
     inkscape:cy="256"
     inkscape:window-x="-8"
     inkscape:window-y="-8"
     inkscape:window-maximized="1"
     inkscape:current-layer="svg4" />
  <path
     d="M313.6 288c-28.7 0-42.5 16-89.6 16-47.1 0-60.8-16-89.6-16C60.2 288 0 348.2 0 422.4V464c0 26.5 21.5 48 48 48h352c26.5 0 48-21.5 48-48v-41.6c0-74.2-60.2-134.4-134.4-134.4zM416 464c0 8.8-7.2 16-16 16H48c-8.8 0-16-7.2-16-16v-41.6C32 365.9 77.9 320 134.4 320c19.6 0 39.1 16 89.6 16 50.4 0 70-16 89.6-16 56.5 0 102.4 45.9 102.4 102.4V464zM224 256c70.7 0 128-57.3 128-128S294.7 0 224 0 96 57.3 96 128s57.3 128 128 128zm0-224c52.9 0 96 43.1 96 96s-43.1 96-96 96-96-43.1-96-96 43.1-96 96-96z"
     id="path2"
     style="fill:#000000" />
  <path
     style="fill:#000000;stroke:#ffffff;stroke-width:2.00784;paint-order:stroke fill markers"
     d="m 41.484655,477.97893 c -3.673998,-1.60029 -7.231162,-6.03691 -8.443742,-10.53132 -1.563251,-5.79417 -0.535405,-56.80788 1.306384,-64.83797 4.847367,-21.13423 13.729541,-37.61118 27.964153,-51.87512 15.214115,-15.24547 33.765273,-24.90029 55.22688,-28.74246 13.64849,-2.44343 23.60169,-1.60093 40.03176,3.38851 25.15043,7.63762 36.84624,9.82268 58.02076,10.83968 23.55213,1.13118 45.60147,-1.97687 73.07959,-10.30123 18.3602,-5.56213 27.74516,-6.44374 41.80339,-3.92696 41.95927,7.51177 73.41449,37.9951 83.19182,80.62139 1.84104,8.02635 2.86836,59.04181 1.3056,64.83416 -1.24106,4.59997 -4.81367,8.97058 -8.6393,10.56903 -4.24518,1.77375 -360.773099,1.7369 -364.847295,-0.0377 z"
     id="path835" />
  <path
     style="fill:#000000;stroke:#ffffff;stroke-width:2.00784;paint-order:stroke fill markers"
     d="m 206.40096,221.84847 c -38.89769,-7.72884 -68.91031,-37.94464 -76.28045,-76.79689 -1.71598,-9.04588 -1.71598,-25.05727 0,-34.10316 7.42745,-39.154343 37.67965,-69.40654 76.83399,-76.833991 14.4047,-2.732525 33.24341,-1.354487 47.42546,3.469137 49.7903,16.934774 76.83467,71.419454 60.00747,120.893474 -11.08455,32.58993 -39.24853,56.94343 -73.32977,63.40853 -8.658,1.6424 -26.29918,1.62351 -34.6567,-0.0371 z"
     id="path837" />
  <path
     style="fill:#0a043c;stroke:#ffffff;stroke-width:2.00784;paint-order:stroke fill markers;fill-opacity:1"
     d="m 214.70504,254.96346 c -38.13327,-2.43385 -74.4025,-23.318 -95.81437,-55.17078 C 102.19795,174.96021 95.126893,148.71445 97.042621,118.69896 101.02137,56.360273 152.30721,5.0777435 214.70504,1.0441546 c 38.12186,-2.4643157 72.76884,10.4645414 99.24722,37.0350684 17.89112,17.95339 29.73913,39.813262 35.13254,64.820447 2.26646,10.50869 2.26646,39.69197 0,50.20066 -8.49118,39.3703 -33.31802,71.41194 -69.27249,89.40341 -19.37741,9.69638 -41.64272,13.95733 -65.10727,12.45972 z m 35.43253,-33.75165 c 32.93198,-9.99541 57.54036,-34.43316 66.74557,-66.28274 9.38225,-32.4622 1.10554,-67.527379 -21.83341,-92.499487 -33.23323,-36.178799 -89.359,-41.418818 -128.75563,-12.020894 -27.27914,20.355802 -41.48223,52.469491 -38.42866,86.888521 3.27597,36.92575 28.38237,69.14979 63.80846,81.89809 12.01082,4.32216 15.9532,4.84994 34.10381,4.56553 15.1086,-0.23673 17.60074,-0.49751 24.35986,-2.54902 z"
     id="path853" />
  <path
     style="fill:#0a043c;fill-opacity:1;stroke:#ffffff;stroke-width:2.00784;paint-order:stroke fill markers"
     d="M 45.51473,511.43327 C 33.944734,510.29925 24.287866,506.18886 16.379191,499.03193 10.264068,493.49806 6.251774,487.55299 3.118381,479.38322 0.89519579,473.58665 0.84269223,472.92129 0.51963095,446.44983 0.14441963,415.70523 1.030605,403.84687 4.7893749,389.31488 10.831104,365.95661 22.26562,345.8603 39.314038,328.63735 52.485271,315.33127 66.112169,306.01094 82.5227,299.08411 c 17.94774,-7.57568 35.23958,-10.79305 54.0747,-10.06129 12.63866,0.49102 12.13105,0.38358 38.24605,8.09481 17.94665,5.29928 28.89345,6.8758 48.27682,6.95266 23.44545,0.093 31.82095,-1.36258 65.10726,-11.31478 9.75314,-2.91607 12.51635,-3.36378 23.18722,-3.75697 36.15814,-1.3323 70.71775,12.72871 97.28337,39.58096 10.59038,10.70464 18.22026,21.46067 24.86074,35.0468 11.62071,23.77545 14.09613,37.6226 14.10778,78.91713 0.006,22.78912 -0.19533,26.56045 -1.74501,32.61964 -4.20505,16.4416 -15.03067,28.0768 -31.56193,33.92225 l -6.9903,2.47177 -179.37716,0.09 c -98.65744,0.0495 -180.77232,-0.0467 -182.47751,-0.21385 z m 361.11992,-32.26252 c 3.41042,-1.2922 6.30087,-4.12575 8.52897,-8.36106 1.77602,-3.37599 1.85727,-4.70228 1.72132,-28.09468 -0.21238,-36.54118 -1.63119,-45.90452 -9.60822,-63.40897 -16.1919,-35.53076 -53.12047,-59.84038 -90.70317,-59.70875 -10.69622,0.0375 -11.90972,0.27793 -38.23779,7.57712 -20.82307,5.77299 -31.36816,7.16643 -54.32968,7.17919 -26.97802,0.015 -29.21945,-0.35839 -72.63668,-12.09984 -39.92298,-10.79648 -87.481337,12.09123 -108.288935,52.11463 -5.600262,10.7721 -9.800435,24.20714 -10.891381,34.83813 -0.510852,4.97814 -0.997196,20.07813 -1.080765,33.55553 -0.145353,23.44188 -0.07029,24.65802 1.731231,28.04764 1.035744,1.94879 3.141358,4.7391 4.679142,6.20069 l 2.79597,2.65744 47.555055,0.53803 c 75.959883,0.85942 315.820513,0.0805 318.764933,-1.0351 z"
     id="path855" />
  <path
     style="fill:#0a043c;fill-opacity:1;stroke:#ffffff;stroke-width:2.00784;paint-order:stroke fill markers"
     d="m 95.848587,478.36798 c -52.7937,-0.4634 -53.793629,-0.50476 -56.249135,-2.3267 -1.374971,-1.0202 -3.390276,-3.41189 -4.478455,-5.31488 -1.914368,-3.3478 -1.978013,-4.2353 -1.963249,-27.37692 0.01966,-30.81603 0.779134,-39.08243 4.686468,-51.00926 5.443755,-16.61663 12.610861,-28.48442 24.592004,-40.72113 18.239918,-18.629 44.36558,-30.11151 68.55948,-30.13264 9.78341,-0.009 13.97253,0.76654 31.44637,5.81827 26.65869,7.70708 42.50191,9.81342 68.16527,9.0625 18.50359,-0.54142 32.19461,-2.72202 51.86241,-8.26021 24.98969,-7.03677 34.92017,-8.11396 49.2402,-5.34121 39.43995,7.63663 69.5923,36.19147 80.56124,76.29302 1.77393,6.48536 1.97164,9.67897 2.33065,37.64706 l 0.39229,30.56056 -2.04074,3.45996 c -1.1224,1.90299 -3.16565,4.29468 -4.54053,5.31488 -2.46044,1.82571 -3.43665,1.86372 -62.00692,2.41405 -67.94645,0.63842 -172.00503,0.60215 -250.557353,-0.0873 z"
     id="path857" />
  <path
     style="fill:#ffffff;fill-opacity:1;stroke:#ffffff;stroke-width:2.00784;paint-order:stroke fill markers"
     d="m 201.72334,220.15565 c -34.09161,-8.81259 -59.60361,-33.88289 -69.60713,-68.40199 -1.78858,-6.17184 -2.00154,-8.79788 -1.96228,-24.19657 0.041,-16.0766 0.20523,-17.79502 2.37065,-24.80276 11.85743,-38.373104 43.45589,-65.088175 81.60197,-68.990792 21.71354,-2.22145 43.52067,3.12225 61.74967,15.131374 34.39922,22.661925 50.61158,65.910818 39.31735,104.884858 -9.72857,33.57125 -38.46951,60.26182 -72.32662,67.16685 -10.90457,2.22394 -30.97288,1.83813 -41.14361,-0.79097 z"
     id="path859" />
  <path
     style="fill:#ffffff;fill-opacity:1;stroke:#ffffff;stroke-width:2.00784;paint-order:stroke fill markers"
     d="M 210.04702,254.07833 C 182.14753,251.21152 154.21325,237.53032 133.65314,216.66337 102.51674,185.06228 90.26748,139.47684 101.28181,96.193993 111.84354,54.689766 144.43443,20.331867 185.71808,7.17977 c 13.19733,-4.204388 23.1568,-5.6786465 38.288,-5.667611 15.39404,0.011227 25.54316,1.5706672 39.42144,6.0572146 38.44621,12.4288304 69.07411,43.6387794 81.82666,83.3816684 4.22597,13.170108 5.34343,23.425678 4.70884,43.215828 -0.66212,20.64906 -3.54128,32.12283 -12.56737,50.08226 -19.9837,39.76206 -58.07549,65.92249 -101.874,69.96437 -10.99975,1.0151 -14.45907,0.99674 -25.47463,-0.13517 z m 42.84645,-33.28865 c 13.47499,-4.7417 22.79226,-9.90766 33.60395,-18.63174 15.67101,-12.64513 27.5902,-32.33624 32.55601,-53.78424 1.02599,-4.43137 1.42538,-10.37123 1.39969,-20.81661 -0.0315,-12.82918 -0.31395,-15.65262 -2.31004,-23.09648 -6.57726,-24.527982 -20.40409,-44.101446 -40.51069,-57.347512 -30.25073,-19.928933 -70.52997,-21.347159 -101.58836,-3.57691 -23.77957,13.605626 -39.68835,34.976644 -46.5834,62.577672 -2.49792,9.99925 -2.70747,32.42684 -0.3972,42.5128 7.27983,31.78173 28.70965,57.10003 58.82638,69.50057 13.31642,5.48301 16.6842,5.97877 38.3308,5.64249 18.56807,-0.28847 19.236,-0.36309 26.67286,-2.98004 z"
     id="path861" />
  <path
     style="fill:#ffffff;fill-opacity:1;stroke:#ffffff;stroke-width:2.00784;paint-order:stroke fill markers"
     d="M 38.074895,509.70225 C 23.753933,506.23709 12.190435,496.81732 5.5549268,483.21107 l -3.8879479,-7.97232 v -34.54671 c 0,-37.95342 0.3275665,-41.22665 5.8918328,-58.87444 10.2428773,-32.48659 35.4939713,-62.11935 66.3596843,-77.87466 19.414128,-9.90989 37.435514,-14.28646 58.783474,-14.27583 13.70786,0.007 16.45144,0.50853 40.36985,7.38229 17.32304,4.97835 27.12946,6.61366 43.84775,7.312 23.01058,0.96118 36.6141,-1.01986 65.73965,-9.57348 l 15.75516,-4.62699 17.27336,-0.0286 c 13.63226,-0.0225 18.8605,0.31875 24.80277,1.6191 25.86488,5.66002 48.84533,18.34224 67.74804,37.38809 10.42207,10.50099 17.92468,21.16799 24.87918,35.37255 11.61969,23.73318 12.8207,30.11023 13.40882,71.19707 0.50033,34.95454 0.17209,38.3761 -4.6512,48.48276 -5.44263,11.40445 -14.19908,19.11833 -27.52874,24.25113 l -6.9368,2.67112 -182.05481,-0.0738 C 70.862359,510.97776 42.509114,510.77518 38.074895,509.70225 Z M 361.46553,480.21852 c 45.04322,-0.53667 46.28435,-0.59783 48.71972,-2.40079 1.37446,-1.01755 3.49531,-3.60856 4.713,-5.75779 2.07808,-3.66785 2.23271,-4.83199 2.51951,-18.96698 0.46039,-22.6902 -1.11582,-46.92286 -3.7163,-57.13448 -9.37603,-36.8181 -41.01029,-67.02675 -78.32626,-74.79647 -9.5379,-1.98593 -21.23553,-2.57735 -28.56981,-1.44448 -3.64066,0.56235 -14.79101,3.20765 -24.77855,5.87845 -24.34241,6.50949 -30.86064,7.51005 -52.74365,8.09625 -26.25429,0.7033 -34.73349,-0.41011 -65.19599,-8.56093 -21.35967,-5.71518 -29.78907,-6.80324 -42.03262,-5.42554 -23.429204,2.63637 -43.89842,12.61443 -61.034322,29.75219 -11.636667,11.63793 -18.60153,22.77022 -24.229742,38.72762 -4.850091,13.75123 -5.523038,19.79736 -5.716424,51.35956 l -0.175279,28.60712 2.35169,3.98616 c 4.851429,8.22326 3.773631,7.90564 27.805526,8.19412 42.091191,0.50528 255.221791,0.4244 300.409501,-0.11401 z"
     id="path863" />
  <path
     style="fill:#ffffff;fill-opacity:1;stroke:#ffffff;stroke-width:2.00784;paint-order:stroke fill markers"
     d="m 66.615481,477.49282 c -27.354234,-0.53824 -27.446776,-0.55957 -30.976289,-7.14072 -1.49393,-2.7856 -1.640033,-5.47549 -1.640033,-30.19457 0,-35.90454 1.608795,-45.06705 11.198623,-63.77912 4.969264,-9.69623 9.177954,-15.36446 18.159213,-24.45669 23.882649,-24.17773 58.146645,-35.01835 86.683685,-27.42542 43.9028,11.68134 49.10217,12.47185 77.95156,11.85173 24.04997,-0.51696 29.25423,-1.26959 55.97101,-8.09437 29.32007,-7.48978 36.35091,-7.95681 53.42691,-3.54891 36.24375,9.35573 63.14219,36.02128 74.10993,73.46826 1.60557,5.48187 1.89345,9.79481 2.48331,37.20415 l 0.66722,31.00346 -2.13163,3.77127 c -3.87482,6.85535 -3.57356,6.78758 -33.01177,7.42677 -31.0741,0.67471 -277.67745,0.60705 -312.891739,-0.0858 z"
     id="path865" />
</svg>
